<svg xmlns="http://www.w3.org/2000/svg" viewBox="0 0 240 240" fill="none">
  <g stroke="#9E2B25" stroke-width="1.2" stroke-linecap="round" stroke-linejoin="round" opacity="0.55">
    <path d="M200 20 C170 20 155 45 130 40 C105 35 95 15 70 25 C45 35 35 60 20 55"/>
    <path d="M210 55 C185 50 170 75 145 70 C120 65 100 45 75 58 C50 71 40 95 25 88"/>
    <path d="M195 90 C175 85 160 110 135 105 C110 100 90 80 65 92"/>
    <path d="M220 110 C200 108 185 130 160 125 C135 120 115 100 90 112"/>
    <circle cx="185" cy="38" r="3" fill="#A67C3D" stroke="none" opacity="0.6"/>
    <circle cx="155" cy="72" r="2.5" fill="#A67C3D" stroke="none" opacity="0.5"/>
    <circle cx="120" cy="48" r="2" fill="#A67C3D" stroke="none" opacity="0.4"/>
  </g>
  <g stroke="#A67C3D" stroke-width="0.8" opacity="0.35">
    <path d="M230 30 L225 35 L230 40 L235 35 Z"/>
    <path d="M175 105 L170 110 L175 115 L180 110 Z"/>
  </g>
</svg>
