<svg xmlns="http://www.w3.org/2000/svg" viewBox="0 0 120 120" fill="none">
  <g stroke="#9E2B25" stroke-width="0.6" opacity="0.25">
    <path d="M0 60 C20 50 40 70 60 60 C80 50 100 70 120 60"/>
    <path d="M0 30 C20 20 40 40 60 30 C80 20 100 40 120 30"/>
    <path d="M0 90 C20 80 40 100 60 90 C80 80 100 100 120 90"/>
    <circle cx="30" cy="30" r="2" fill="#A67C3D" stroke="none" opacity="0.35"/>
    <circle cx="90" cy="90" r="2" fill="#A67C3D" stroke="none" opacity="0.35"/>
    <circle cx="90" cy="30" r="1.5" fill="#A67C3D" stroke="none" opacity="0.25"/>
    <circle cx="30" cy="90" r="1.5" fill="#A67C3D" stroke="none" opacity="0.25"/>
  </g>
  <g stroke="#A67C3D" stroke-width="0.5" opacity="0.18">
    <rect x="52" y="52" width="16" height="16" rx="1"/>
    <path d="M52 60 H68 M60 52 V68"/>
  </g>
</svg>
